{
  "accessors": [
    {
      "bufferView": 2,
      "componentType": 5126,
      "count": 8633,
      "max": [
        0.9553419947624207,
        4.766363143920898,
        0.9553419947624207
      ],
      "min": [
        -0.9553419947624207,
        -0.7892242670059204,
        -0.9553419947624207
      ],
      "type": "VEC3"
    },
    {
      "bufferView": 2,
      "byteOffset": 103596,
      "componentType": 5126,
      "count": 8633,
      "max": [
        1.0,
        0.28551262617111206,
        1.0
      ],
      "min": [
        -1.0,
        0.0,
        -1.0
      ],
      "type": "VEC3"
    },
    {
      "bufferView": 1,
      "componentType": 5126,
      "count": 8633,
      "max": [
        1.0012102127075195,
        1.0019975900650024
      ],
      "min": [
        -0.004051637835800648,
        0.0037376880645751953
      ],
      "type": "VEC2"
    },
    {
      "bufferView": 0,
      "componentType": 5125,
      "count": 50688,
      "type": "SCALAR"
    },
    {
      "bufferView": 2,
      "byteOffset": 207192,
      "componentType": 5126,
      "count": 20530,
      "max": [
        0.9059728384017944,
        4.81919527053833,
        0.9059728384017944
      ],
      "min": [
        -0.9059728384017944,
        4.578547477722168,
        -0.9059728384017944
      ],
      "type": "VEC3"
    },
    {
      "bufferView": 2,
      "byteOffset": 453552,
      "componentType": 5126,
      "count": 20530,
      "max": [
        0.9998379945755005,
        1.0,
        0.9998379945755005
      ],
      "min": [
        -0.9998379945755005,
        -0.9998795986175537,
        -0.9998379945755005
      ],
      "type": "VEC3"
    },
    {
      "bufferView": 3,
      "componentType": 5126,
      "count": 20530,
      "max": [
        0.8866432309150696,
        0.9998379945755005,
        0.9999649524688721,
        1.0
      ],
      "min": [
        -0.995905876159668,
        -0.9998379945755005,
        -0.9756772518157959,
        -1.0
      ],
      "type": "VEC4"
    },
    {
      "bufferView": 1,
      "byteOffset": 69064,
      "componentType": 5126,
      "count": 20530,
      "max": [
        1.0,
        1.0
      ],
      "min": [
        -1.0880564893511746e-08,
        0.006876647472381592
      ],
      "type": "VEC2"
    },
    {
      "bufferView": 1,
      "byteOffset": 233304,
      "componentType": 5126,
      "count": 20530,
      "max": [
        1.0000001192092896,
        1.7881393432617188e-07
      ],
      "min": [
        7.450579886381092e-08,
        -2.384185791015625e-07
      ],
      "type": "VEC2"
    },
    {
      "bufferView": 1,
      "byteOffset": 397544,
      "componentType": 5126,
      "count": 20530,
      "max": [
        1.0,
        1.0
      ],
      "min": [
        -1.0880564893511746e-08,
        0.006876647472381592
      ],
      "type": "VEC2"
    },
    {
      "bufferView": 1,
      "byteOffset": 561784,
      "componentType": 5126,
      "count": 20530,
      "max": [
        1.0,
        1.0
      ],
      "min": [
        -1.0880564893511746e-08,
        0.006876647472381592
      ],
      "type": "VEC2"
    },
    {
      "bufferView": 1,
      "byteOffset": 726024,
      "componentType": 5126,
      "count": 20530,
      "max": [
        1.0,
        1.0
      ],
      "min": [
        -1.0880564893511746e-08,
        0.006876647472381592
      ],
      "type": "VEC2"
    },
    {
      "bufferView": 0,
      "byteOffset": 202752,
      "componentType": 5125,
      "count": 111744,
      "type": "SCALAR"
    },
    {
      "bufferView": 2,
      "byteOffset": 699912,
      "componentType": 5126,
      "count": 11441,
      "max": [
        0.946277916431427,
        0.1744883954524994,
        0.9840763807296753
      ],
      "min": [
        -0.946277379989624,
        0.0,
        -0.9849763512611389
      ],
      "type": "VEC3"
    },
    {
      "bufferView": 2,
      "byteOffset": 837204,
      "componentType": 5126,
      "count": 11441,
      "max": [
        0.99997878074646,
        1.0,
        1.0
      ],
      "min": [
        -1.0,
        -1.0,
        -0.9999998807907104
      ],
      "type": "VEC3"
    },
    {
      "bufferView": 3,
      "byteOffset": 328480,
      "componentType": 5126,
      "count": 11441,
      "max": [
        1.0,
        0.9163666367530823,
        0.7614660263061523,
        1.0
      ],
      "min": [
        -0.7583142518997192,
        -0.9131174683570862,
        -0.9999838471412659,
        -1.0
      ],
      "type": "VEC4"
    },
    {
      "bufferView": 1,
      "byteOffset": 890264,
      "componentType": 5126,
      "count": 11441,
      "max": [
        0.5245434045791626,
        0.5238957405090332
      ],
      "min": [
        0.4753986597061157,
        0.47276461124420166
      ],
      "type": "VEC2"
    },
    {
      "bufferView": 1,
      "byteOffset": 981792,
      "componentType": 5126,
      "count": 11441,
      "max": [
        0.9971070289611816,
        1.0
      ],
      "min": [
        -1.0615537782143747e-08,
        -1.1920928955078125e-07
      ],
      "type": "VEC2"
    },
    {
      "bufferView": 1,
      "byteOffset": 1073320,
      "componentType": 5126,
      "count": 11441,
      "max": [
        0.5245434045791626,
        0.5238957405090332
      ],
      "min": [
        0.4753986597061157,
        0.47276461124420166
      ],
      "type": "VEC2"
    },
    {
      "bufferView": 1,
      "byteOffset": 1164848,
      "componentType": 5126,
      "count": 11441,
      "max": [
        0.5245434045791626,
        0.5238957405090332
      ],
      "min": [
        0.4753986597061157,
        0.47276461124420166
      ],
      "type": "VEC2"
    },
    {
      "bufferView": 1,
      "byteOffset": 1256376,
      "componentType": 5126,
      "count": 11441,
      "max": [
        0.5245434045791626,
        0.5238957405090332
      ],
      "min": [
        0.4753986597061157,
        0.47276461124420166
      ],
      "type": "VEC2"
    },
    {
      "bufferView": 0,
      "byteOffset": 649728,
      "componentType": 5125,
      "count": 49920,
      "type": "SCALAR"
    },
    {
      "bufferView": 2,
      "byteOffset": 974496,
      "componentType": 5126,
      "count": 5839,
      "max": [
        0.9553418755531311,
        -0.7892241477966309,
        0.9553418755531311
      ],
      "min": [
        -0.9553418755531311,
        -0.9614135026931763,
        -0.9553418755531311
      ],
      "type": "VEC3"
    },
    {
      "bufferView": 2,
      "byteOffset": 1044564,
      "componentType": 5126,
      "count": 5839,
      "max": [
        0.9974189400672913,
        -0.07169575244188309,
        0.9974189400672913
      ],
      "min": [
        -0.9974189400672913,
        -1.0,
        -0.9974189400672913
      ],
      "type": "VEC3"
    },
    {
      "bufferView": 3,
      "byteOffset": 511536,
      "componentType": 5126,
      "count": 5839,
      "max": [
        0.9979775547981262,
        0.9974262118339539,
        0.9999985694885254,
        1.0
      ],
      "min": [
        -0.9999138116836548,
        -0.7948629260063171,
        -0.9999992251396179,
        -1.0
      ],
      "type": "VEC4"
    },
    {
      "bufferView": 1,
      "byteOffset": 1347904,
      "componentType": 5126,
      "count": 5839,
      "max": [
        1.0000001192092896,
        1.0
      ],
      "min": [
        3.91975305547021e-08,
        0.1582164764404297
      ],
      "type": "VEC2"
    },
    {
      "bufferView": 1,
      "byteOffset": 1394616,
      "componentType": 5126,
      "count": 5839,
      "max": [
        1.0000001192092896,
        1.0
      ],
      "min": [
        3.91975305547021e-08,
        0.1582164764404297
      ],
      "type": "VEC2"
    },
    {
      "bufferView": 1,
      "byteOffset": 1441328,
      "componentType": 5126,
      "count": 5839,
      "max": [
        1.0000001192092896,
        1.0
      ],
      "min": [
        3.91975305547021e-08,
        0.1582164764404297
      ],
      "type": "VEC2"
    },
    {
      "bufferView": 1,
      "byteOffset": 1488040,
      "componentType": 5126,
      "count": 5839,
      "max": [
        1.0000001192092896,
        1.0
      ],
      "min": [
        3.91975305547021e-08,
        0.1582164764404297
      ],
      "type": "VEC2"
    },
    {
      "bufferView": 0,
      "byteOffset": 849408,
      "componentType": 5125,
      "count": 32256,
      "type": "SCALAR"
    },
    {
      "bufferView": 2,
      "byteOffset": 1114632,
      "componentType": 5126,
      "count": 1777,
      "max": [
        0.826704740524292,
        -0.6037768125534058,
        0.826704740524292
      ],
      "min": [
        -0.826704740524292,
        -0.9614135026931763,
        -0.826704740524292
      ],
      "type": "VEC3"
    },
    {
      "bufferView": 2,
      "byteOffset": 1135956,
      "componentType": 5126,
      "count": 1777,
      "max": [
        0.8007314801216125,
        -0.5989750623703003,
        0.8007314801216125
      ],
      "min": [
        -0.8007314801216125,
        -1.0,
        -0.8007314801216125
      ],
      "type": "VEC3"
    },
    {
      "bufferView": 3,
      "byteOffset": 604960,
      "componentType": 5126,
      "count": 1777,
      "max": [
        -0.05001566559076309,
        0.8007639646530151,
        0.9956333637237549,
        -1.0
      ],
      "min": [
        -0.4031358063220978,
        -0.8007639050483704,
        0.5782850980758667,
        -1.0
      ],
      "type": "VEC4"
    },
    {
      "bufferView": 1,
      "byteOffset": 1534752,
      "componentType": 5126,
      "count": 1777,
      "max": [
        0.5417237877845764,
        1.0
      ],
      "min": [
        -5.45447909061636e-09,
        0.4582762122154236
      ],
      "type": "VEC2"
    },
    {
      "bufferView": 1,
      "byteOffset": 1548968,
      "componentType": 5126,
      "count": 1777,
      "max": [
        0.5417237877845764,
        1.0
      ],
      "min": [
        -5.45447909061636e-09,
        0.4582762122154236
      ],
      "type": "VEC2"
    },
    {
      "bufferView": 1,
      "byteOffset": 1563184,
      "componentType": 5126,
      "count": 1777,
      "max": [
        0.5417237877845764,
        1.0
      ],
      "min": [
        -5.45447909061636e-09,
        0.4582762122154236
      ],
      "type": "VEC2"
    },
    {
      "bufferView": 1,
      "byteOffset": 1577400,
      "componentType": 5126,
      "count": 1777,
      "max": [
        0.5417237877845764,
        1.0
      ],
      "min": [
        -5.45447909061636e-09,
        0.4582762122154236
      ],
      "type": "VEC2"
    },
    {
      "bufferView": 0,
      "byteOffset": 978432,
      "componentType": 5125,
      "count": 10368,
      "type": "SCALAR"
    }
  ],
  "asset": {
    "extras": {
      "author": "japrice1010 (https://sketchfab.com/japrice1010)",
      "license": "CC-BY-4.0 (http://creativecommons.org/licenses/by/4.0/)",
      "source": "https://sketchfab.com/3d-models/celsius-energy-drink-a643e229bd0b444b9a1ed205bf586d7b",
      "title": "Celsius Energy Drink"
    },
    "generator": "Sketchfab-16.95.0",
    "version": "2.0"
  },
  "bufferViews": [
    {
      "buffer": 0,
      "byteLength": 1019904,
      "name": "floatBufferViews",
      "target": 34963
    },
    {
      "buffer": 0,
      "byteLength": 1591616,
      "byteOffset": 1019904,
      "byteStride": 8,
      "name": "floatBufferViews",
      "target": 34962
    },
    {
      "buffer": 0,
      "byteLength": 1157280,
      "byteOffset": 2611520,
      "byteStride": 12,
      "name": "floatBufferViews",
      "target": 34962
    },
    {
      "buffer": 0,
      "byteLength": 633392,
      "byteOffset": 3768800,
      "byteStride": 16,
      "name": "floatBufferViews",
      "target": 34962
    }
  ],
  "buffers": [
    {
      "byteLength": 4402192,
      "uri": "scene.bin"
    }
  ],
  "extensionsUsed": [
    "KHR_materials_specular"
  ],
  "images": [
    {
      "uri": "textures/Material.001_baseColor.jpeg"
    },
    {
      "uri": "textures/Brushed_Aluminum_Black_Stained_baseColor.jpeg"
    },
    {
      "uri": "textures/Brushed_Aluminum_Black_Stained_metallicRoughness.png"
    },
    {
      "uri": "textures/Brushed_Aluminum_Black_Stained_normal.jpeg"
    },
    {
      "uri": "textures/Dark_Steel_baseColor.jpeg"
    },
    {
      "uri": "textures/Dark_Steel_metallicRoughness.png"
    },
    {
      "uri": "textures/Dark_Steel_normal.jpeg"
    },
    {
      "uri": "textures/Scuffed_Aluminum_baseColor.jpeg"
    },
    {
      "uri": "textures/Scuffed_Aluminum_metallicRoughness.png"
    },
    {
      "uri": "textures/Scuffed_Aluminum_normal.jpeg"
    }
  ],
  "materials": [
    {
      "doubleSided": true,
      "name": "Material.001",
      "pbrMetallicRoughness": {
        "baseColorTexture": {
          "index": 0
        },
        "metallicFactor": 0.687117,
        "roughnessFactor": 0.266871
      }
    },
    {
      "doubleSided": true,
      "name": "Brushed_Aluminum_Black_Stained",
      "normalTexture": {
        "index": 3,
        "scale": 0.1
      },
      "pbrMetallicRoughness": {
        "baseColorTexture": {
          "index": 1
        },
        "metallicRoughnessTexture": {
          "index": 2
        }
      }
    },
    {
      "doubleSided": true,
      "name": "Dark_Steel",
      "normalTexture": {
        "index": 6
      },
      "pbrMetallicRoughness": {
        "baseColorTexture": {
          "index": 4
        },
        "metallicRoughnessTexture": {
          "index": 5
        }
      }
    },
    {
      "doubleSided": true,
      "extensions": {
        "KHR_materials_specular": {
          "specularColorFactor": [
            1.0,
            1.0,
            1.0
          ],
          "specularFactor": 0.0
        }
      },
      "name": "Scuffed_Aluminum",
      "normalTexture": {
        "index": 9
      },
      "pbrMetallicRoughness": {
        "baseColorTexture": {
          "index": 7
        },
        "metallicRoughnessTexture": {
          "index": 8
        }
      }
    }
  ],
  "meshes": [
    {
      "name": "Object_0",
      "primitives": [
        {
          "attributes": {
            "NORMAL": 1,
            "POSITION": 0,
            "TEXCOORD_0": 2
          },
          "indices": 3,
          "material": 0,
          "mode": 4
        }
      ]
    },
    {
      "name": "Object_1",
      "primitives": [
        {
          "attributes": {
            "NORMAL": 5,
            "POSITION": 4,
            "TANGENT": 6,
            "TEXCOORD_0": 7,
            "TEXCOORD_1": 8,
            "TEXCOORD_2": 9,
            "TEXCOORD_3": 10,
            "TEXCOORD_4": 11
          },
          "indices": 12,
          "material": 1,
          "mode": 4
        }
      ]
    },
    {
      "name": "Object_2",
      "primitives": [
        {
          "attributes": {
            "NORMAL": 14,
            "POSITION": 13,
            "TANGENT": 15,
            "TEXCOORD_0": 16,
            "TEXCOORD_1": 17,
            "TEXCOORD_2": 18,
            "TEXCOORD_3": 19,
            "TEXCOORD_4": 20
          },
          "indices": 21,
          "material": 2,
          "mode": 4
        }
      ]
    },
    {
      "name": "Object_3",
      "primitives": [
        {
          "attributes": {
            "NORMAL": 23,
            "POSITION": 22,
            "TANGENT": 24,
            "TEXCOORD_0": 25,
            "TEXCOORD_1": 26,
            "TEXCOORD_2": 27,
            "TEXCOORD_3": 28
          },
          "indices": 29,
          "material": 3,
          "mode": 4
        }
      ]
    },
    {
      "name": "Object_4",
      "primitives": [
        {
          "attributes": {
            "NORMAL": 31,
            "POSITION": 30,
            "TANGENT": 32,
            "TEXCOORD_0": 33,
            "TEXCOORD_1": 34,
            "TEXCOORD_2": 35,
            "TEXCOORD_3": 36
          },
          "indices": 37,
          "material": 3,
          "mode": 4
        }
      ]
    }
  ],
  "nodes": [
    {
      "children": [
        1
      ],
      "matrix": [
        1.0,
        0.0,
        0.0,
        0.0,
        0.0,
        2.220446049250313e-16,
        -1.0,
        0.0,
        0.0,
        1.0,
        2.220446049250313e-16,
        0.0,
        0.0,
        0.0,
        0.0,
        1.0
      ],
      "name": "Sketchfab_model"
    },
    {
      "children": [
        2
      ],
      "name": "root"
    },
    {
      "children": [
        3,
        5,
        7,
        9,
        11
      ],
      "matrix": [
        1.0,
        0.0,
        0.0,
        0.0,
        0.0,
        2.220446049250313e-16,
        1.0,
        0.0,
        0.0,
        -1.0,
        2.220446049250313e-16,
        0.0,
        0.0,
        0.0,
        0.0,
        1.0
      ],
      "name": "GLTF_SceneRootNode"
    },
    {
      "children": [
        4
      ],
      "matrix": [
        0.053191810846328735,
        0.0,
        0.0,
        0.0,
        0.0,
        0.04583996534347534,
        0.0,
        0.0,
        0.0,
        0.0,
        0.053191810846328735,
        0.0,
        0.0,
        0.04622606188058853,
        0.0,
        1.0
      ],
      "name": "Cylinder_0"
    },
    {
      "mesh": 0,
      "name": "Object_4"
    },
    {
      "children": [
        6
      ],
      "matrix": [
        0.053191810846328735,
        0.0,
        0.0,
        0.0,
        0.0,
        0.04583996534347534,
        0.0,
        0.0,
        0.0,
        0.0,
        0.053191810846328735,
        0.0,
        0.0,
        0.04622606188058853,
        0.0,
        1.0
      ],
      "name": "Cylinder.001_2"
    },
    {
      "mesh": 1,
      "name": "Object_6"
    },
    {
      "children": [
        8
      ],
      "matrix": [
        0.012267456389963627,
        0.0,
        0.0,
        0.0,
        0.0,
        0.00703143603276208,
        0.00024168402771619407,
        0.0,
        0.0,
        -0.0006781923247670317,
        0.019730993374164396,
        0.0,
        0.0,
        0.25861018896102905,
        -0.007592625450342894,
        1.0
      ],
      "name": "Plane_3"
    },
    {
      "mesh": 2,
      "name": "Object_8"
    },
    {
      "children": [
        10
      ],
      "matrix": [
        0.053191810846328735,
        0.0,
        0.0,
        0.0,
        0.0,
        0.04583996534347534,
        0.0,
        0.0,
        0.0,
        0.0,
        0.053191810846328735,
        0.0,
        0.0,
        0.04622606188058853,
        0.0,
        1.0
      ],
      "name": "Cylinder.002_4"
    },
    {
      "mesh": 3,
      "name": "Object_10"
    },
    {
      "children": [
        12
      ],
      "matrix": [
        0.053191810846328735,
        0.0,
        0.0,
        0.0,
        0.0,
        0.04583996534347534,
        0.0,
        0.0,
        0.0,
        0.0,
        0.053191810846328735,
        0.0,
        0.0,
        0.04622606188058853,
        0.0,
        1.0
      ],
      "name": "Cylinder.003_5"
    },
    {
      "mesh": 4,
      "name": "Object_12"
    }
  ],
  "samplers": [
    {
      "magFilter": 9729,
      "minFilter": 9987,
      "wrapS": 10497,
      "wrapT": 10497
    }
  ],
  "scene": 0,
  "scenes": [
    {
      "name": "Sketchfab_Scene",
      "nodes": [
        0
      ]
    }
  ],
  "textures": [
    {
      "sampler": 0,
      "source": 0
    },
    {
      "sampler": 0,
      "source": 1
    },
    {
      "sampler": 0,
      "source": 2
    },
    {
      "sampler": 0,
      "source": 3
    },
    {
      "sampler": 0,
      "source": 4
    },
    {
      "sampler": 0,
      "source": 5
    },
    {
      "sampler": 0,
      "source": 6
    },
    {
      "sampler": 0,
      "source": 7
    },
    {
      "sampler": 0,
      "source": 8
    },
    {
      "sampler": 0,
      "source": 9
    }
  ]
}
